<!-- icon666.com - MILLIONS vector ICONS FREE --><svg id="Layer_1" enable-background="new 0 0 512 512" viewBox="0 0 512 512" xmlns="http://www.w3.org/2000/svg"><g><path d="m424.748 0h-337.496c-48.111 0-87.252 39.141-87.252 87.252v337.495c0 48.112 39.141 87.253 87.252 87.253h337.495c48.112 0 87.253-39.141 87.253-87.252v-337.496c0-48.111-39.141-87.252-87.252-87.252zm57.252 424.748c0 31.569-25.683 57.252-57.252 57.252h-337.496c-31.569 0-57.252-25.683-57.252-57.252v-337.496c0-31.569 25.683-57.252 57.252-57.252h337.495c31.57 0 57.253 25.683 57.253 57.252z"></path><path d="m371.153 100.849h-230.306c-27.396 0-49.683 22.288-49.683 49.683v153.195c0 8.284 6.716 15 15 15h30.19v39.39c0 8.284 6.716 15 15 15h35.65v23.034c0 8.284 6.716 15 15 15h107.992c8.284 0 15-6.716 15-15v-23.034h35.65c8.284 0 15-6.716 15-15v-39.39h30.19c8.284 0 15-6.716 15-15v-153.195c0-27.396-22.287-49.683-49.683-49.683zm19.683 187.878h-30.19c-8.284 0-15 6.716-15 15v39.39h-35.65c-8.284 0-15 6.716-15 15v23.034h-77.992v-23.034c0-8.284-6.716-15-15-15h-35.65v-39.39c0-8.284-6.716-15-15-15h-30.19v-138.195c0-10.854 8.83-19.683 19.683-19.683h30.2v55.807c0 8.284 6.716 15 15 15s15-6.716 15-15v-55.807h39.953v55.807c0 8.284 6.716 15 15 15s15-6.716 15-15v-55.807h39.953v55.807c0 8.284 6.716 15 15 15s15-6.716 15-15v-55.807h30.2c10.854 0 19.683 8.83 19.683 19.683z"></path></g></svg>